<svg height="511pt" viewBox="-50 0 511 511.998" width="511pt" xmlns="http://www.w3.org/2000/svg"><path d="m353.824219 392.300781c-8.285157 0-15 6.714844-15 15 0 41.1875-33.628907 74.699219-74.964844 74.699219h-193.179687c-1.285157 0-2.328126-1.023438-2.328126-2.277344v-54.515625l11.59375 12.355469c2.953126 3.148438 6.941407 4.734375 10.941407 4.734375 3.679687 0 7.367187-1.34375 10.261719-4.0625 6.042968-5.667969 6.34375-15.160156.675781-21.199219l-32.46875-34.605468c-4.085938-4.355469-9.835938-6.871094-15.804688-6.925782-.066406 0-.132812 0-.199219 0-.066406 0-.128906 0-.195312 0-5.96875.054688-11.71875 2.570313-15.804688 6.925782l-32.46875 34.605468c-5.671874 6.039063-5.367187 15.53125.671876 21.199219 6.042968 5.671875 15.535156 5.367187 21.203124-.671875l11.59375-12.359375v54.519531c0 17.796875 14.503907 32.273438 32.328126 32.273438h193.179687c57.878906 0 104.964844-46.96875 104.964844-104.699219 0-8.28125-6.714844-14.996094-15-14.996094zm0 0"/><path d="m53.351562 119.699219c8.285157 0 15-6.714844 15-15 0-41.1875 33.632813-74.699219 74.96875-74.699219h193.179688c1.28125 0 2.324219 1.019531 2.324219 2.277344v37.675781l-11.59375-12.355469c-5.667969-6.039062-15.160157-6.34375-21.199219-.671875-6.042969 5.667969-6.34375 15.160157-.675781 21.199219l32.46875 34.605469c3.648437 3.886719 8.621093 6.308593 13.894531 6.824219.6875.09375 1.390625.144531 2.105469.144531.714843 0 1.417969-.050781 2.105469-.144531 5.273437-.515626 10.25-2.9375 13.898437-6.824219l32.46875-34.605469c5.667969-6.042969 5.367187-15.535156-.675781-21.203125-6.039063-5.667969-15.53125-5.367187-21.199219.675781l-11.597656 12.355469v-37.675781c0-17.796875-14.5-32.277344-32.328125-32.277344h-193.175782c-57.878906 0-104.96875 46.96875-104.96875 104.699219 0 8.285156 6.714844 15 15 15zm0 0"/><path d="m20.550781 325.007812v15.332032c0 8.28125 6.714844 15 15 15 8.285157 0 15-6.71875 15-15v-13.191406h5.664063v13.191406c0 8.28125 6.71875 15 15 15 8.285156 0 15-6.71875 15-15v-17.292969c14.832031-6.960937 25.125-22.035156 25.125-39.472656 0-10.921875-4.039063-20.917969-10.703125-28.574219 6.664062-7.65625 10.703125-17.652344 10.703125-28.574219 0-17.4375-10.292969-32.511719-25.125-39.472656v-17.292969c0-8.28125-6.714844-15-15-15-8.28125 0-15 6.71875-15 15v13.191406h-5.664063v-13.191406c0-8.28125-6.714843-15-15-15-8.285156 0-15 6.71875-15 15v15.332032c-11.722656 4.582031-20.050781 16-20.050781 29.324218v81.363282c0 13.328124 8.328125 24.746093 20.050781 29.328124zm9.949219-110.691406c0-.808594.65625-1.464844 1.46875-1.464844h35.796875c7.484375 0 13.574219 6.089844 13.574219 13.574219s-6.089844 13.574219-13.574219 13.574219h-37.265625zm37.265625 55.683594c7.484375 0 13.574219 6.089844 13.574219 13.574219s-6.089844 13.574219-13.574219 13.574219h-35.796875c-.8125 0-1.46875-.65625-1.46875-1.464844v-25.683594zm0 0"/><path d="m395.5 309.921875h-15.167969c-15.78125 0-30.035156-6.65625-40.089843-17.296875h26.148437c8.28125 0 15-6.714844 15-15s-6.71875-15-15-15h-40.609375c-.351562-2.492188-.53125-5.039062-.53125-7.625 0-1.988281.109375-3.949219.316406-5.882812h40.824219c8.28125 0 15-6.71875 15-15 0-8.285157-6.71875-15-15-15h-27.722656c10.105469-11.652344 25.035156-19.039063 41.664062-19.039063h15.167969c8.28125 0 15-6.714844 15-15 0-8.28125-6.71875-15-15-15h-15.167969c-34.074219 0-63.53125 20.097656-77.105469 49.039063h-20.992187c-8.285156 0-15 6.714843-15 15 0 8.28125 6.714844 15 15 15h13.21875c-.132813 1.941406-.203125 3.90625-.203125 5.882812 0 2.570312.117188 5.113281.339844 7.625h-13.355469c-8.285156 0-15 6.714844-15 15s6.714844 15 15 15h21.832031c13.921875 28.003906 42.878906 47.296875 76.265625 47.296875h15.167969c8.28125 0 15-6.71875 15-15 0-8.285156-6.71875-15-15-15zm0 0"/></svg>